<?xml version="1.0" standalone="no"?><!DOCTYPE svg PUBLIC "-//W3C//DTD SVG 1.1//EN" "http://www.w3.org/Graphics/SVG/1.1/DTD/svg11.dtd"><svg t="1587461669022" class="icon" viewBox="0 0 2048 1024" version="1.1" xmlns="http://www.w3.org/2000/svg" p-id="1655" width="128" height="64" xmlns:xlink="http://www.w3.org/1999/xlink"><defs><style type="text/css"></style></defs><path d="M128 0h1792c76.8 0 128 51.2 128 128v768c0 76.8-51.2 128-128 128H128C51.2 1024 0 972.8 0 896V128C0 64 51.2 0 128 0z" fill="#FF6600" p-id="1656"></path><path d="M473.6 832c-25.6 0-51.2-25.6-64-76.8L192 179.2h166.4L512 576l243.2-396.8h179.2l-371.2 576c-38.4 64-64 76.8-89.6 76.8z m409.6-12.8L972.8 192h153.6l-89.6 627.2zM1856 422.4c-12.8 64-38.4 128-102.4 179.2-51.2 38.4-115.2 64-179.2 64h-268.8L1280 819.2h-153.6l51.2-320h435.2c25.6 0 38.4-12.8 51.2-25.6 12.8-12.8 25.6-38.4 25.6-51.2 0-25.6 0-38.4-12.8-51.2-12.8-12.8-38.4-25.6-51.2-25.6h-435.2l128-166.4h320c64 0 128 25.6 166.4 64 51.2 64 64 128 51.2 179.2z" fill="#FFFFFF" p-id="1657"></path></svg>